<svg width="96" height="75" viewBox="0 0 96 75" fill="none" xmlns="http://www.w3.org/2000/svg">
<path d="M39.6752 41.9272H60.2098L71.3095 54.0641H39.6752V41.9272Z" fill="#2EA2C9"/>
<path d="M24.6905 0H57.1573L66.8696 11.0335H34.4028L24.6905 0Z" fill="#2EA2C9"/>
<path d="M46.8957 12.6885H66.8753L39.9546 54.0665L27.1879 41.6447L46.8957 12.6885Z" fill="#224F68"/>
<path d="M89.6686 66.4277L85.8053 74.8603H82.6933L87.9711 64.6881H89.9515L89.6686 66.4277ZM92.8782 74.8603L89.0052 66.4277L88.693 64.6881H90.6929L96 74.8603H92.8782ZM92.7026 71.0736V72.7154H85.2005V71.0736H92.7026Z" fill="#224F68"/>
<path d="M65.1602 64.6881H67.6381L71.2868 72.1565L74.9354 64.6881H77.4133L72.2818 74.8603H70.2917L65.1602 64.6881ZM63.8237 64.6881H66.2919L66.7406 71.9679V74.8603H63.8237V64.6881ZM76.2817 64.6881H78.7596V74.8603H75.8329V71.9679L76.2817 64.6881Z" fill="#224F68"/>
<path d="M53.5943 66.4277L49.7311 74.8603H46.619L51.8968 64.6881H53.8772L53.5943 66.4277ZM56.8039 74.8603L52.9309 66.4277L52.6188 64.6881H54.6187L59.9258 74.8603H56.8039ZM56.6283 71.0736V72.7154H49.1262V71.0736H56.6283Z" fill="#224F68"/>
<path d="M42.6398 64.6881V74.8603H39.7131L34.0061 68.0415V74.8603H31.0794V64.6881H34.0061L39.7229 71.5138V64.6881H42.6398Z" fill="#224F68"/>
<path d="M27.0383 69.5366V70.0187C27.0383 70.7919 26.892 71.4858 26.5993 72.1006C26.3067 72.7154 25.8937 73.2394 25.3604 73.6726C24.8271 74.1011 24.1897 74.4294 23.4483 74.6577C22.7133 74.8859 21.8971 75 20.9996 75C20.1086 75 19.2924 74.8859 18.5509 74.6577C17.816 74.4294 17.1786 74.1011 16.6388 73.6726C16.099 73.2394 15.6795 72.7154 15.3803 72.1006C15.0877 71.4858 14.9413 70.7919 14.9413 70.0187V69.5366C14.9413 68.7588 15.0877 68.0648 15.3803 67.4547C15.673 66.8399 16.086 66.3159 16.6193 65.8828C17.1591 65.4496 17.7965 65.1189 18.5314 64.8907C19.2728 64.6625 20.0891 64.5484 20.9801 64.5484C21.8776 64.5484 22.6938 64.6625 23.4288 64.8907C24.1702 65.1189 24.8076 65.4496 25.3409 65.8828C25.8807 66.3159 26.2969 66.8399 26.5896 67.4547C26.8888 68.0648 27.0383 68.7588 27.0383 69.5366ZM24.0824 70.0187V69.5227C24.0824 68.9824 24.0141 68.5073 23.8775 68.0974C23.7409 67.6876 23.5393 67.3429 23.2727 67.0635C23.006 66.784 22.6808 66.5744 22.2971 66.4347C21.9134 66.2903 21.4744 66.2181 20.9801 66.2181C20.4858 66.2181 20.0468 66.2903 19.6631 66.4347C19.2859 66.5744 18.9639 66.784 18.6973 67.0635C18.4371 67.3429 18.2387 67.6876 18.1022 68.0974C17.9656 68.5073 17.8973 68.9824 17.8973 69.5227V70.0187C17.8973 70.5543 17.9656 71.0294 18.1022 71.4439C18.2387 71.8538 18.4404 72.2008 18.707 72.4849C18.9737 72.7644 19.2989 72.9763 19.6826 73.1207C20.0663 73.265 20.5053 73.3372 20.9996 73.3372C21.4939 73.3372 21.9329 73.265 22.3166 73.1207C22.7003 72.9763 23.0223 72.7644 23.2824 72.4849C23.5426 72.2008 23.7409 71.8538 23.8775 71.4439C24.0141 71.0294 24.0824 70.5543 24.0824 70.0187Z" fill="#224F68"/>
<path d="M10.8288 73.2255V74.8603H0.760941V73.2255H10.8288ZM10.6824 65.8548L2.05844 74.8603H0V73.6586L8.69229 64.6881H10.6824V65.8548ZM9.67761 64.6881V66.3299H0.00975566V64.6881H9.67761Z" fill="#224F68"/>
</svg>
